<mxfile host="app.diagrams.net" modified="2024-03-27T14:59:10.753Z" agent="Mozilla/5.0 (Windows NT 10.0; Win64; x64) AppleWebKit/537.36 (KHTML, like Gecko) Chrome/123.0.0.0 Safari/537.36" etag="X8l-zuAgNYnybMguhFOP" version="24.2.0" type="device">
  <diagram name="Page-1" id="0QWvSErwzNonlfV24U-0">
    <mxGraphModel dx="757" dy="540" grid="1" gridSize="10" guides="1" tooltips="1" connect="1" arrows="1" fold="1" page="1" pageScale="1" pageWidth="850" pageHeight="1100" math="0" shadow="0">
      <root>
        <mxCell id="0" />
        <mxCell id="1" parent="0" />
        <mxCell id="JXcaVInuVGJE_VHxCGp_-1" value="Farmer" style="rounded=0;whiteSpace=wrap;html=1;" vertex="1" parent="1">
          <mxGeometry x="60" y="350" width="120" height="60" as="geometry" />
        </mxCell>
        <mxCell id="JXcaVInuVGJE_VHxCGp_-8" style="edgeStyle=orthogonalEdgeStyle;rounded=0;orthogonalLoop=1;jettySize=auto;html=1;exitX=0;exitY=0.5;exitDx=0;exitDy=0;exitPerimeter=0;entryX=1;entryY=0.5;entryDx=0;entryDy=0;" edge="1" parent="1" source="JXcaVInuVGJE_VHxCGp_-2" target="JXcaVInuVGJE_VHxCGp_-1">
          <mxGeometry relative="1" as="geometry" />
        </mxCell>
        <mxCell id="JXcaVInuVGJE_VHxCGp_-9" value="View Equipment" style="edgeLabel;html=1;align=center;verticalAlign=middle;resizable=0;points=[];" vertex="1" connectable="0" parent="JXcaVInuVGJE_VHxCGp_-8">
          <mxGeometry x="0.2358" y="4" relative="1" as="geometry">
            <mxPoint x="17" y="-4" as="offset" />
          </mxGeometry>
        </mxCell>
        <mxCell id="JXcaVInuVGJE_VHxCGp_-10" style="edgeStyle=orthogonalEdgeStyle;rounded=0;orthogonalLoop=1;jettySize=auto;html=1;exitX=0;exitY=0;exitDx=0;exitDy=52.5;exitPerimeter=0;entryX=1;entryY=0.75;entryDx=0;entryDy=0;" edge="1" parent="1" source="JXcaVInuVGJE_VHxCGp_-2" target="JXcaVInuVGJE_VHxCGp_-1">
          <mxGeometry relative="1" as="geometry" />
        </mxCell>
        <mxCell id="JXcaVInuVGJE_VHxCGp_-14" value="View Order Dashboard" style="edgeLabel;html=1;align=center;verticalAlign=middle;resizable=0;points=[];" vertex="1" connectable="0" parent="JXcaVInuVGJE_VHxCGp_-10">
          <mxGeometry x="0.0047" relative="1" as="geometry">
            <mxPoint as="offset" />
          </mxGeometry>
        </mxCell>
        <mxCell id="JXcaVInuVGJE_VHxCGp_-18" style="edgeStyle=orthogonalEdgeStyle;rounded=0;orthogonalLoop=1;jettySize=auto;html=1;exitX=0.855;exitY=0;exitDx=0;exitDy=4.35;exitPerimeter=0;entryX=1;entryY=0.5;entryDx=0;entryDy=0;" edge="1" parent="1" source="JXcaVInuVGJE_VHxCGp_-2" target="JXcaVInuVGJE_VHxCGp_-15">
          <mxGeometry relative="1" as="geometry">
            <Array as="points">
              <mxPoint x="421" y="320" />
              <mxPoint x="470" y="320" />
              <mxPoint x="470" y="240" />
            </Array>
          </mxGeometry>
        </mxCell>
        <mxCell id="JXcaVInuVGJE_VHxCGp_-19" value="View Order Dashboard" style="edgeLabel;html=1;align=center;verticalAlign=middle;resizable=0;points=[];" vertex="1" connectable="0" parent="JXcaVInuVGJE_VHxCGp_-18">
          <mxGeometry x="0.391" y="3" relative="1" as="geometry">
            <mxPoint x="3" y="8" as="offset" />
          </mxGeometry>
        </mxCell>
        <mxCell id="JXcaVInuVGJE_VHxCGp_-2" value="MongoDB" style="shape=cylinder3;whiteSpace=wrap;html=1;boundedLbl=1;backgroundOutline=1;size=15;" vertex="1" parent="1">
          <mxGeometry x="370" y="340" width="60" height="80" as="geometry" />
        </mxCell>
        <mxCell id="JXcaVInuVGJE_VHxCGp_-3" value="Cloudinary" style="shape=cylinder3;whiteSpace=wrap;html=1;boundedLbl=1;backgroundOutline=1;size=15;" vertex="1" parent="1">
          <mxGeometry x="80" y="200" width="80" height="80" as="geometry" />
        </mxCell>
        <mxCell id="JXcaVInuVGJE_VHxCGp_-4" style="edgeStyle=orthogonalEdgeStyle;rounded=0;orthogonalLoop=1;jettySize=auto;html=1;entryX=0.5;entryY=1;entryDx=0;entryDy=0;entryPerimeter=0;exitX=0.5;exitY=0;exitDx=0;exitDy=0;" edge="1" parent="1" source="JXcaVInuVGJE_VHxCGp_-1" target="JXcaVInuVGJE_VHxCGp_-3">
          <mxGeometry relative="1" as="geometry" />
        </mxCell>
        <mxCell id="JXcaVInuVGJE_VHxCGp_-5" value="Upload Images" style="edgeLabel;html=1;align=center;verticalAlign=middle;resizable=0;points=[];" vertex="1" connectable="0" parent="JXcaVInuVGJE_VHxCGp_-4">
          <mxGeometry x="0.189" relative="1" as="geometry">
            <mxPoint as="offset" />
          </mxGeometry>
        </mxCell>
        <mxCell id="JXcaVInuVGJE_VHxCGp_-6" style="edgeStyle=orthogonalEdgeStyle;rounded=0;orthogonalLoop=1;jettySize=auto;html=1;exitX=1;exitY=0.25;exitDx=0;exitDy=0;entryX=0;entryY=0;entryDx=0;entryDy=27.5;entryPerimeter=0;" edge="1" parent="1" source="JXcaVInuVGJE_VHxCGp_-1" target="JXcaVInuVGJE_VHxCGp_-2">
          <mxGeometry relative="1" as="geometry" />
        </mxCell>
        <mxCell id="JXcaVInuVGJE_VHxCGp_-7" value="Create Product Entry" style="edgeLabel;html=1;align=center;verticalAlign=middle;resizable=0;points=[];" vertex="1" connectable="0" parent="JXcaVInuVGJE_VHxCGp_-6">
          <mxGeometry x="-0.1397" y="-1" relative="1" as="geometry">
            <mxPoint as="offset" />
          </mxGeometry>
        </mxCell>
        <mxCell id="JXcaVInuVGJE_VHxCGp_-15" value="Dealer" style="html=1;dashed=0;whiteSpace=wrap;" vertex="1" parent="1">
          <mxGeometry x="350" y="215" width="100" height="50" as="geometry" />
        </mxCell>
        <mxCell id="JXcaVInuVGJE_VHxCGp_-16" style="edgeStyle=orthogonalEdgeStyle;rounded=0;orthogonalLoop=1;jettySize=auto;html=1;entryX=0.5;entryY=0;entryDx=0;entryDy=0;entryPerimeter=0;" edge="1" parent="1" source="JXcaVInuVGJE_VHxCGp_-15" target="JXcaVInuVGJE_VHxCGp_-2">
          <mxGeometry relative="1" as="geometry" />
        </mxCell>
        <mxCell id="JXcaVInuVGJE_VHxCGp_-17" value="create equipment listing" style="edgeLabel;html=1;align=center;verticalAlign=middle;resizable=0;points=[];" vertex="1" connectable="0" parent="JXcaVInuVGJE_VHxCGp_-16">
          <mxGeometry x="-0.0041" relative="1" as="geometry">
            <mxPoint y="-2" as="offset" />
          </mxGeometry>
        </mxCell>
      </root>
    </mxGraphModel>
  </diagram>
</mxfile>
